<svg width="504" height="224" viewBox="0 0 504 224" fill="none" xmlns="http://www.w3.org/2000/svg">
<g filter="url(#filter0_d_6404_1017)">
<rect x="32" y="20" width="440" height="160" rx="20" fill="white" fill-opacity="0.08" shape-rendering="crispEdges"/>
<rect x="32.5" y="20.5" width="439" height="159" rx="19.5" stroke="url(#paint0_linear_6404_1017)" shape-rendering="crispEdges"/>
<path d="M63.06 63L61.62 59.22H55.38L53.92 63H52.14L57.72 49H59.26L64.84 63H63.06ZM55.96 57.7H61.02L58.5 51.1L55.96 57.7ZM69.8083 63.16C67.4683 63.16 65.9483 61.86 65.7883 59.76H67.3283C67.4683 61.06 68.3483 61.76 69.8083 61.76C71.0683 61.76 71.9083 61.06 71.9083 60.24C71.9083 57.24 66.0483 59.94 66.0483 55.58C66.0483 53.88 67.4883 52.76 69.6083 52.76C71.8283 52.76 73.3283 53.98 73.4483 55.84H71.8883C71.7483 54.56 70.4883 54.12 69.5683 54.12C68.3883 54.12 67.6083 54.68 67.6083 55.56C67.6083 58.28 73.5083 55.58 73.5083 60.2C73.5083 62 72.0283 63.16 69.8083 63.16ZM82.6428 63L78.7228 57.96L77.4028 59.16V63H75.7828V48.78H77.4028V57.18L82.1428 52.92H84.2628L79.9428 56.86L84.6628 63H82.6428ZM94.8763 52.76C97.4963 52.76 99.1363 54.26 99.1363 56.5V63H97.5363V61.26C96.9963 62.42 95.6563 63.16 94.0963 63.16C91.9763 63.16 90.5963 61.96 90.5963 60.12C90.5963 58.2 92.1763 56.98 94.6163 56.98H96.8963C97.3363 56.98 97.5363 56.76 97.5363 56.44C97.5363 55.06 96.5563 54.12 94.8363 54.12C93.3563 54.12 92.1963 55.04 92.1163 56.14H90.5963C90.7763 54.2 92.6163 52.76 94.8763 52.76ZM94.3363 61.8C96.3563 61.8 97.5363 60.54 97.5363 58.46V58.2H94.7163C93.2163 58.2 92.2363 58.92 92.2363 60.1C92.2363 61.14 93.0563 61.8 94.3363 61.8ZM101.504 63V52.92H103.104V54.86C103.624 53.46 104.884 52.76 106.424 52.76C108.704 52.76 110.184 54.38 110.184 56.84V63H108.584V57.1C108.584 55.38 107.584 54.22 106.064 54.22C104.344 54.22 103.104 55.6 103.104 57.56V63H101.504ZM120.5 52.92L117.3 61.62L115.46 67.08H113.92L115.2 63.16L111.44 52.92H113.1L115.96 60.92L118.82 52.92H120.5ZM123.17 49.7H124.77V52.92H127.87V54.34H124.77V59.8C124.77 60.92 125.41 61.58 126.39 61.58H127.87V63H126.33C124.41 63 123.17 61.8 123.17 59.84V54.34H121.07V52.92H123.17V49.7ZM129.826 63V48.78H131.426V54.86C131.946 53.46 133.206 52.76 134.746 52.76C137.026 52.76 138.506 54.38 138.506 56.84V63H136.906V57.1C136.906 55.38 135.906 54.22 134.386 54.22C132.666 54.22 131.426 55.6 131.426 57.56V63H129.826ZM141.032 48.78H142.872V51.02H141.032V48.78ZM141.152 63V52.92H142.752V63H141.152ZM145.39 63V52.92H146.99V54.86C147.51 53.46 148.77 52.76 150.31 52.76C152.59 52.76 154.07 54.38 154.07 56.84V63H152.47V57.1C152.47 55.38 151.47 54.22 149.95 54.22C148.23 54.22 146.99 55.6 146.99 57.56V63H145.39ZM164.418 52.92H166.018V63.44C166.018 65.58 164.478 67.08 162.298 67.08H157.538V65.7H162.198C163.498 65.7 164.418 64.72 164.418 63.38V61.6C163.938 62.54 162.598 63.16 161.078 63.16C157.938 63.16 156.218 60.9 156.218 57.96C156.218 55.02 157.938 52.76 161.078 52.76C162.438 52.76 163.798 53.44 164.418 54.4V52.92ZM161.218 61.72C163.238 61.72 164.558 60.24 164.558 57.96C164.558 55.68 163.238 54.2 161.218 54.2C159.178 54.2 157.858 55.68 157.858 57.96C157.858 60.24 159.178 61.72 161.218 61.72ZM172.23 63.16C169.89 63.16 168.37 61.86 168.21 59.76H169.75C169.89 61.06 170.77 61.76 172.23 61.76C173.49 61.76 174.33 61.06 174.33 60.24C174.33 57.24 168.47 59.94 168.47 55.58C168.47 53.88 169.91 52.76 172.03 52.76C174.25 52.76 175.75 53.98 175.87 55.84H174.31C174.17 54.56 172.91 54.12 171.99 54.12C170.81 54.12 170.03 54.68 170.03 55.56C170.03 58.28 175.93 55.58 175.93 60.2C175.93 62 174.45 63.16 172.23 63.16ZM183.19 61.12H184.97V63H183.19V61.12ZM188.19 61.12H189.97V63H188.19V61.12ZM193.19 61.12H194.97V63H193.19V61.12Z" fill="white" fill-opacity="0.4"/>
<rect x="52" y="120" width="40" height="40" rx="20" fill="white" fill-opacity="0.12"/>
<rect x="52.5" y="120.5" width="39" height="39" rx="19.5" stroke="white" stroke-opacity="0.08"/>
<path d="M66.5 140H77.5" stroke="white" stroke-width="1.2" stroke-linecap="round" stroke-linejoin="round"/>
<path d="M72 134.5V145.5" stroke="white" stroke-width="1.2" stroke-linecap="round" stroke-linejoin="round"/>
<rect x="100" y="120" width="133" height="40" rx="20" fill="white" fill-opacity="0.12"/>
<rect x="100.5" y="120.5" width="132" height="39" rx="19.5" stroke="white" stroke-opacity="0.08"/>
<path d="M124 146C127.314 146 130 143.314 130 140C130 136.686 127.314 134 124 134C120.686 134 118 136.686 118 140C118 143.314 120.686 146 124 146Z" stroke="white" stroke-width="1.2" stroke-miterlimit="10"/>
<path d="M118.344 138H129.656" stroke="white" stroke-width="1.2" stroke-linecap="round" stroke-linejoin="round"/>
<path d="M118.344 142H129.656" stroke="white" stroke-width="1.2" stroke-linecap="round" stroke-linejoin="round"/>
<path d="M124 145.838C125.381 145.838 126.5 143.224 126.5 140C126.5 136.776 125.381 134.163 124 134.163C122.619 134.163 121.5 136.776 121.5 140C121.5 143.224 122.619 145.838 124 145.838Z" stroke="white" stroke-width="1.2" stroke-miterlimit="10"/>
<path d="M143.346 145.5L140.308 135.7H141.554L143.962 143.694L146.44 135.7H147.504L149.968 143.694L152.404 135.7H153.622L150.626 145.5H149.394L146.972 137.534L144.536 145.5H143.346ZM159.065 143.232H160.199C159.961 144.674 158.715 145.612 156.965 145.612C154.879 145.612 153.479 143.946 153.479 141.93C153.479 139.858 154.767 138.332 156.839 138.332C158.897 138.332 160.129 139.76 160.129 141.636C160.129 141.79 160.115 142.028 160.101 142.126H154.585C154.669 143.582 155.635 144.618 156.965 144.618C158.113 144.618 158.841 144.114 159.065 143.232ZM156.839 139.284C155.649 139.284 154.851 139.984 154.641 141.23H158.981C158.897 140.04 158.099 139.284 156.839 139.284ZM165.151 145.612C164.171 145.612 163.247 145.108 162.813 144.338V145.5H161.693V135.546H162.813V139.592C163.247 138.836 164.157 138.332 165.151 138.332C167.349 138.332 168.553 139.914 168.553 141.972C168.553 144.03 167.349 145.612 165.151 145.612ZM165.053 144.604C166.481 144.604 167.405 143.568 167.405 141.972C167.405 140.376 166.481 139.34 165.053 139.34C163.639 139.34 162.715 140.376 162.715 141.972C162.715 143.568 163.639 144.604 165.053 144.604ZM176.616 145.612C174.418 145.612 173.018 144.296 172.892 142.294H174.068C174.194 143.652 175.09 144.534 176.616 144.534C177.974 144.534 178.954 144.016 178.954 142.826C178.954 140.306 173.228 141.692 173.228 138.192C173.228 136.638 174.586 135.588 176.546 135.588C178.506 135.588 179.864 136.722 180.004 138.486H178.828C178.716 137.38 177.862 136.666 176.546 136.666C175.216 136.666 174.432 137.254 174.432 138.192C174.432 140.698 180.2 139.144 180.2 142.826C180.2 144.604 178.66 145.612 176.616 145.612ZM186.819 143.232H187.953C187.715 144.674 186.469 145.612 184.719 145.612C182.633 145.612 181.233 143.946 181.233 141.93C181.233 139.858 182.521 138.332 184.593 138.332C186.651 138.332 187.883 139.76 187.883 141.636C187.883 141.79 187.869 142.028 187.855 142.126H182.339C182.423 143.582 183.389 144.618 184.719 144.618C185.867 144.618 186.595 144.114 186.819 143.232ZM184.593 139.284C183.403 139.284 182.605 139.984 182.395 141.23H186.735C186.651 140.04 185.853 139.284 184.593 139.284ZM192.052 138.332C193.886 138.332 195.034 139.382 195.034 140.95V145.5H193.914V144.282C193.536 145.094 192.598 145.612 191.506 145.612C190.022 145.612 189.056 144.772 189.056 143.484C189.056 142.14 190.162 141.286 191.87 141.286H193.466C193.774 141.286 193.914 141.132 193.914 140.908C193.914 139.942 193.228 139.284 192.024 139.284C190.988 139.284 190.176 139.928 190.12 140.698H189.056C189.182 139.34 190.47 138.332 192.052 138.332ZM191.674 144.66C193.088 144.66 193.914 143.778 193.914 142.322V142.14H191.94C190.89 142.14 190.204 142.644 190.204 143.47C190.204 144.198 190.778 144.66 191.674 144.66ZM200.626 139.438H199.646C198.218 139.438 197.812 140.726 197.812 142.392V145.5H196.692V138.444H197.812V139.872C198.106 138.906 198.694 138.444 199.73 138.444H200.626V139.438ZM204.514 145.612C202.288 145.612 201.084 143.862 201.084 141.972C201.084 140.082 202.288 138.332 204.514 138.332C206.096 138.332 207.51 139.256 207.72 140.824H206.614C206.474 139.97 205.592 139.34 204.528 139.34C202.988 139.34 202.246 140.53 202.246 141.972C202.246 143.414 203.002 144.604 204.528 144.604C205.592 144.604 206.362 144.072 206.614 143.218H207.706C207.468 144.66 206.306 145.612 204.514 145.612ZM209.148 145.5V135.546H210.268V139.802C210.632 138.822 211.514 138.332 212.592 138.332C214.188 138.332 215.224 139.466 215.224 141.188V145.5H214.104V141.37C214.104 140.166 213.404 139.354 212.34 139.354C211.136 139.354 210.268 140.32 210.268 141.692V145.5H209.148Z" fill="white"/>
<rect x="364" y="120" width="40" height="40" rx="20" fill="white" fill-opacity="0.12"/>
<rect x="364.5" y="120.5" width="39" height="39" rx="19.5" stroke="white" stroke-opacity="0.08"/>
<path d="M386.5 136C386.5 134.619 385.381 133.5 384 133.5C382.619 133.5 381.5 134.619 381.5 136V140C381.5 141.381 382.619 142.5 384 142.5C385.381 142.5 386.5 141.381 386.5 140V136Z" stroke="white" stroke-width="1.2" stroke-linecap="round" stroke-linejoin="round"/>
<path d="M384 144.5V146.5" stroke="white" stroke-width="1.2" stroke-linecap="round" stroke-linejoin="round"/>
<path d="M388.475 140.5C388.345 141.596 387.818 142.606 386.993 143.339C386.168 144.072 385.103 144.476 384 144.476C382.897 144.476 381.832 144.072 381.007 143.339C380.182 142.606 379.655 141.596 379.525 140.5" stroke="white" stroke-width="1.2" stroke-linecap="round" stroke-linejoin="round"/>
<g filter="url(#filter1_di_6404_1017)">
<rect x="412" y="120" width="40" height="40" rx="20" fill="url(#paint1_linear_6404_1017)" shape-rendering="crispEdges"/>
<rect x="412.5" y="120.5" width="39" height="39" rx="19.5" stroke="url(#paint2_linear_6404_1017)" shape-rendering="crispEdges"/>
<path d="M432.669 142.469L431.469 145.725C431.433 145.821 431.369 145.903 431.285 145.961C431.202 146.02 431.102 146.051 431 146.051C430.898 146.051 430.798 146.02 430.715 145.961C430.631 145.903 430.567 145.821 430.531 145.725L429.331 142.469C429.306 142.4 429.266 142.338 429.214 142.286C429.162 142.234 429.1 142.194 429.031 142.169L425.775 140.969C425.679 140.933 425.597 140.869 425.539 140.785C425.48 140.702 425.449 140.602 425.449 140.5C425.449 140.398 425.48 140.298 425.539 140.214C425.597 140.131 425.679 140.067 425.775 140.031L429.031 138.831C429.1 138.806 429.162 138.766 429.214 138.714C429.266 138.662 429.306 138.6 429.331 138.531L430.531 135.275C430.567 135.179 430.631 135.097 430.715 135.038C430.798 134.98 430.898 134.949 431 134.949C431.102 134.949 431.202 134.98 431.285 135.038C431.369 135.097 431.433 135.179 431.469 135.275L432.669 138.531C432.694 138.6 432.734 138.662 432.786 138.714C432.838 138.766 432.9 138.806 432.969 138.831L436.225 140.031C436.321 140.067 436.403 140.131 436.462 140.214C436.52 140.298 436.551 140.398 436.551 140.5C436.551 140.602 436.52 140.702 436.462 140.785C436.403 140.869 436.321 140.933 436.225 140.969L432.969 142.169C432.9 142.194 432.838 142.234 432.786 142.286C432.734 142.338 432.694 142.4 432.669 142.469V142.469Z" stroke="white" stroke-width="1.2" stroke-linecap="round" stroke-linejoin="round"/>
<path d="M435 132.5V135.5" stroke="white" stroke-width="1.2" stroke-linecap="round" stroke-linejoin="round"/>
<path d="M436.5 134H433.5" stroke="white" stroke-width="1.2" stroke-linecap="round" stroke-linejoin="round"/>
<path d="M438 136V138" stroke="white" stroke-width="1.2" stroke-linecap="round" stroke-linejoin="round"/>
<path d="M439 137H437" stroke="white" stroke-width="1.2" stroke-linecap="round" stroke-linejoin="round"/>
</g>
</g>
<defs>
<filter id="filter0_d_6404_1017" x="0" y="0" width="504" height="224" filterUnits="userSpaceOnUse" color-interpolation-filters="sRGB">
<feFlood flood-opacity="0" result="BackgroundImageFix"/>
<feColorMatrix in="SourceAlpha" type="matrix" values="0 0 0 0 0 0 0 0 0 0 0 0 0 0 0 0 0 0 127 0" result="hardAlpha"/>
<feOffset dy="12"/>
<feGaussianBlur stdDeviation="16"/>
<feComposite in2="hardAlpha" operator="out"/>
<feColorMatrix type="matrix" values="0 0 0 0 0 0 0 0 0 0 0 0 0 0 0 0 0 0 0.08 0"/>
<feBlend mode="normal" in2="BackgroundImageFix" result="effect1_dropShadow_6404_1017"/>
<feBlend mode="normal" in="BackgroundImageFix" in2="effect1_dropShadow_6404_1017" result="BackgroundImageFix"/>
<feBlend mode="normal" in="SourceGraphic" in2="BackgroundImageFix" result="shape"/>
</filter>
<filter id="filter1_di_6404_1017" x="388" y="100" width="88" height="88" filterUnits="userSpaceOnUse" color-interpolation-filters="sRGB">
<feFlood flood-opacity="0" result="BackgroundImageFix"/>
<feColorMatrix in="SourceAlpha" type="matrix" values="0 0 0 0 0 0 0 0 0 0 0 0 0 0 0 0 0 0 127 0" result="hardAlpha"/>
<feOffset dy="4"/>
<feGaussianBlur stdDeviation="12"/>
<feComposite in2="hardAlpha" operator="out"/>
<feColorMatrix type="matrix" values="0 0 0 0 0.0827989 0 0 0 0 0.366658 0 0 0 0 0.883188 0 0 0 1 0"/>
<feBlend mode="normal" in2="BackgroundImageFix" result="effect1_dropShadow_6404_1017"/>
<feBlend mode="normal" in="SourceGraphic" in2="effect1_dropShadow_6404_1017" result="shape"/>
<feColorMatrix in="SourceAlpha" type="matrix" values="0 0 0 0 0 0 0 0 0 0 0 0 0 0 0 0 0 0 127 0" result="hardAlpha"/>
<feOffset dy="2"/>
<feGaussianBlur stdDeviation="0.5"/>
<feComposite in2="hardAlpha" operator="arithmetic" k2="-1" k3="1"/>
<feColorMatrix type="matrix" values="0 0 0 0 1 0 0 0 0 1 0 0 0 0 1 0 0 0 0.24 0"/>
<feBlend mode="normal" in2="shape" result="effect2_innerShadow_6404_1017"/>
</filter>
<linearGradient id="paint0_linear_6404_1017" x1="107.5" y1="-61" x2="252" y2="180" gradientUnits="userSpaceOnUse">
<stop stop-color="white" stop-opacity="0.2"/>
<stop offset="1" stop-color="white" stop-opacity="0.04"/>
</linearGradient>
<linearGradient id="paint1_linear_6404_1017" x1="432.113" y1="102" x2="431.13" y2="159.985" gradientUnits="userSpaceOnUse">
<stop stop-color="#93D2FF"/>
<stop offset="1" stop-color="#0542FC"/>
</linearGradient>
<linearGradient id="paint2_linear_6404_1017" x1="432" y1="120" x2="432" y2="160" gradientUnits="userSpaceOnUse">
<stop stop-color="#0542FC"/>
<stop offset="1" stop-color="#3567FD"/>
</linearGradient>
</defs>
</svg>
