<svg width="640" height="400" viewBox="0 0 640 400" fill="none" xmlns="http://www.w3.org/2000/svg">
<path d="M80 240C84.4183 240 88 243.582 88 248V272C88 276.418 84.4183 280 80 280H56C51.5817 280 48 276.418 48 272V248C48 243.582 51.5817 240 56 240H80ZM136 240C140.418 240 144 243.582 144 248V272C144 276.418 140.418 280 136 280H112C107.582 280 104 276.418 104 272V248C104 243.582 107.582 240 112 240H136ZM192 240C196.418 240 200 243.582 200 248V272C200 276.418 196.418 280 192 280H168C163.582 280 160 276.418 160 272V248C160 243.582 163.582 240 168 240H192ZM248 240C252.418 240 256 243.582 256 248V272C256 276.418 252.418 280 248 280H224C219.582 280 216 276.418 216 272V248C216 243.582 219.582 240 224 240H248ZM304 240C308.418 240 312 243.582 312 248V272C312 276.418 308.418 280 304 280H280C275.582 280 272 276.418 272 272V248C272 243.582 275.582 240 280 240H304ZM360 240C364.418 240 368 243.582 368 248V272C368 276.418 364.418 280 360 280H336C331.582 280 328 276.418 328 272V248C328 243.582 331.582 240 336 240H360ZM416 240C420.418 240 424 243.582 424 248V272C424 276.418 420.418 280 416 280H392C387.582 280 384 276.418 384 272V248C384 243.582 387.582 240 392 240H416ZM472 240C476.418 240 480 243.582 480 248V272C480 276.418 476.418 280 472 280H448C443.582 280 440 276.418 440 272V248C440 243.582 443.582 240 448 240H472ZM528 240C532.418 240 536 243.582 536 248V272C536 276.418 532.418 280 528 280H504C499.582 280 496 276.418 496 272V248C496 243.582 499.582 240 504 240H528ZM584 240C588.418 240 592 243.582 592 248V272C592 276.418 588.418 280 584 280H560C555.582 280 552 276.418 552 272V248C552 243.582 555.582 240 560 240H584Z" fill="url(#paint0_linear_1_2)" fill-opacity="0.08"/>
<g filter="url(#filter0_f_1_2)">
<ellipse cx="495.5" cy="366" rx="325.5" ry="125" fill="#4875FF" fill-opacity="0.8"/>
</g>
<g filter="url(#filter1_di_1_2)">
<rect x="233" y="230" width="175" height="60" rx="30" fill="url(#paint1_linear_1_2)" shape-rendering="crispEdges"/>
<rect x="233.5" y="230.5" width="174" height="59" rx="29.5" stroke="url(#paint2_linear_1_2)" shape-rendering="crispEdges"/>
<path d="M264.5 268.25L265.75 262L260.75 260.125L269.5 250.75L268.25 257L273.25 258.875L264.5 268.25Z" stroke="white" stroke-width="1.5" stroke-linecap="round" stroke-linejoin="round"/>
<path d="M294.81 266.5L293.604 263.296H288.258L287.052 266.5H285.126L290.076 253.9H291.804L296.754 266.5H294.81ZM288.888 261.658H292.992L290.94 256.24L288.888 261.658ZM298.271 266.5V253.9H300.143V266.5H298.271ZM312.789 266.644C309.549 266.644 306.633 264.52 306.633 260.2C306.633 255.88 309.585 253.756 312.789 253.756C315.651 253.756 317.919 255.484 318.261 257.95H316.299C316.083 256.474 314.607 255.412 312.771 255.412C310.323 255.412 308.559 257.086 308.559 260.2C308.559 263.314 310.323 264.988 312.771 264.988C314.643 264.988 316.137 263.926 316.335 262.45H318.225C317.955 264.916 315.705 266.644 312.789 266.644ZM320.201 266.5V253.63H321.947V259.03C322.433 257.896 323.513 257.284 324.863 257.284C326.915 257.284 328.247 258.76 328.247 260.92V266.5H326.501V261.262C326.501 259.822 325.655 258.85 324.377 258.85C322.955 258.85 321.947 260.002 321.947 261.586V266.5H320.201ZM334.103 257.284C336.443 257.284 337.991 258.634 337.991 260.65V266.5H336.245V265.024C335.813 265.996 334.661 266.644 333.293 266.644C331.439 266.644 330.215 265.528 330.215 263.908C330.215 262.162 331.601 261.082 333.743 261.082H335.633C336.047 261.082 336.245 260.866 336.245 260.542C336.245 259.444 335.453 258.688 334.049 258.688C332.789 258.688 331.871 259.48 331.817 260.398H330.197C330.341 258.616 331.961 257.284 334.103 257.284ZM333.635 265.258C335.291 265.258 336.245 264.196 336.245 262.522V262.306H333.905C332.717 262.306 331.943 262.918 331.943 263.872C331.943 264.7 332.627 265.258 333.635 265.258ZM341.15 254.584H342.896V257.428H345.578V258.94H342.896V263.476C342.896 264.448 343.418 264.988 344.3 264.988H345.578V266.5H344.156C342.32 266.5 341.15 265.384 341.15 263.53V258.94H339.296V257.428H341.15V254.584ZM352.156 266.644C350.95 266.644 349.834 266.05 349.312 265.15V266.5H347.566V253.63H349.312V258.76C349.834 257.878 350.932 257.284 352.174 257.284C354.946 257.284 356.512 259.264 356.512 261.964C356.512 264.664 354.946 266.644 352.156 266.644ZM351.958 265.114C353.632 265.114 354.748 263.854 354.748 261.964C354.748 260.074 353.632 258.814 351.958 258.814C350.266 258.814 349.168 260.074 349.168 261.964C349.168 263.854 350.266 265.114 351.958 265.114ZM362.571 266.644C359.853 266.644 357.891 264.682 357.891 261.964C357.891 259.246 359.853 257.284 362.571 257.284C365.289 257.284 367.233 259.246 367.233 261.964C367.233 264.682 365.289 266.644 362.571 266.644ZM362.571 265.114C364.281 265.114 365.451 263.818 365.451 261.964C365.451 260.11 364.281 258.814 362.571 258.814C360.843 258.814 359.673 260.11 359.673 261.964C359.673 263.818 360.843 265.114 362.571 265.114ZM370.044 254.584H371.79V257.428H374.472V258.94H371.79V263.476C371.79 264.448 372.312 264.988 373.194 264.988H374.472V266.5H373.05C371.214 266.5 370.044 265.384 370.044 263.53V258.94H368.19V257.428H370.044V254.584ZM379.502 266.644C377.378 266.644 375.956 265.456 375.83 263.548H377.468C377.576 264.592 378.332 265.186 379.502 265.186C380.546 265.186 381.212 264.628 381.212 263.962C381.212 261.55 376.064 263.764 376.064 259.894C376.064 258.328 377.396 257.284 379.286 257.284C381.338 257.284 382.742 258.418 382.832 260.128H381.194C381.068 259.084 380.06 258.67 379.286 258.67C378.35 258.67 377.72 259.138 377.72 259.84C377.72 262.09 382.904 259.786 382.904 263.926C382.904 265.582 381.554 266.644 379.502 266.644Z" fill="white"/>
</g>
<rect x="221.5" y="218.5" width="198" height="83" rx="41.5" stroke="url(#paint3_linear_1_2)"/>
<rect x="205.5" y="202.5" width="230" height="115" rx="57.5" stroke="url(#paint4_linear_1_2)" stroke-opacity="0.4"/>
<rect x="185.5" y="182.5" width="270" height="155" rx="77.5" stroke="url(#paint5_linear_1_2)" stroke-opacity="0.2"/>
<g filter="url(#filter2_dd_1_2)">
<rect x="458" y="322" width="70" height="28" rx="8" fill="url(#paint6_linear_1_2)"/>
<path d="M470.548 340.096C468.448 340.096 466.504 338.692 466.504 335.8C466.504 332.896 468.46 331.504 470.548 331.504C472.372 331.504 473.872 332.644 474.1 334.216H473.02C472.876 333.184 471.832 332.428 470.548 332.428C468.796 332.428 467.56 333.616 467.56 335.8C467.56 337.984 468.796 339.172 470.548 339.172C471.856 339.172 472.912 338.416 473.032 337.384H474.088C473.908 338.956 472.408 340.096 470.548 340.096ZM480.473 333.952V340H479.513V338.836C479.201 339.676 478.457 340.096 477.521 340.096C476.153 340.096 475.265 339.124 475.265 337.648V333.952H476.225V337.492C476.225 338.524 476.825 339.22 477.737 339.22C478.781 339.22 479.513 338.392 479.513 337.216V333.952H480.473ZM484.162 340.096C482.758 340.096 481.846 339.316 481.75 338.056H482.674C482.758 338.836 483.286 339.256 484.162 339.256C484.918 339.256 485.422 338.836 485.422 338.344C485.422 336.544 481.906 338.164 481.906 335.548C481.906 334.528 482.77 333.856 484.042 333.856C485.374 333.856 486.274 334.588 486.346 335.704H485.41C485.326 334.936 484.57 334.672 484.018 334.672C483.31 334.672 482.842 335.008 482.842 335.536C482.842 337.168 486.382 335.548 486.382 338.32C486.382 339.4 485.494 340.096 484.162 340.096ZM488.276 332.02H489.236V333.952H491.096V334.804H489.236V338.08C489.236 338.752 489.62 339.148 490.208 339.148H491.096V340H490.172C489.02 340 488.276 339.28 488.276 338.104V334.804H487.016V333.952H488.276V332.02ZM494.7 340.096C492.912 340.096 491.628 338.788 491.628 336.976C491.628 335.152 492.912 333.856 494.7 333.856C496.5 333.856 497.784 335.152 497.784 336.976C497.784 338.788 496.5 340.096 494.7 340.096ZM494.7 339.232C495.948 339.232 496.8 338.296 496.8 336.976C496.8 335.656 495.948 334.72 494.7 334.72C493.464 334.72 492.612 335.656 492.612 336.976C492.612 338.296 493.464 339.232 494.7 339.232ZM499.019 340V333.952H499.979V335.116C500.207 334.384 500.879 333.856 501.803 333.856C502.799 333.856 503.579 334.312 503.795 335.14C504.023 334.42 504.827 333.856 505.751 333.856C507.059 333.856 507.851 334.732 507.851 336.196V340H506.891V336.448C506.891 335.416 506.375 334.708 505.523 334.708C504.515 334.708 503.915 335.416 503.915 336.448V340H502.955V336.448C502.955 335.416 502.439 334.708 501.599 334.708C500.579 334.708 499.979 335.416 499.979 336.448V340H499.019ZM513.877 338.056H514.849C514.645 339.292 513.577 340.096 512.077 340.096C510.289 340.096 509.089 338.668 509.089 336.94C509.089 335.164 510.193 333.856 511.969 333.856C513.733 333.856 514.789 335.08 514.789 336.688C514.789 336.82 514.777 337.024 514.765 337.108H510.037C510.109 338.356 510.937 339.244 512.077 339.244C513.061 339.244 513.685 338.812 513.877 338.056ZM511.969 334.672C510.949 334.672 510.265 335.272 510.085 336.34H513.805C513.733 335.32 513.049 334.672 511.969 334.672ZM519.453 334.804H518.613C517.389 334.804 517.041 335.908 517.041 337.336V340H516.081V333.952H517.041V335.176C517.293 334.348 517.797 333.952 518.685 333.952H519.453V334.804Z" fill="white"/>
</g>
<g filter="url(#filter3_d_1_2)">
<path d="M460.057 313.617L444.524 309.024C442.775 308.507 441.239 310.302 442.02 311.949L448.949 326.576C449.78 328.332 452.342 328.125 452.881 326.259L454.212 321.65C454.367 321.112 454.73 320.659 455.22 320.388L460.478 317.486C462.118 316.581 461.853 314.148 460.057 313.617Z" fill="url(#paint7_linear_1_2)"/>
<path d="M460.057 313.617L444.524 309.024C442.775 308.507 441.239 310.302 442.02 311.949L448.949 326.576C449.78 328.332 452.342 328.125 452.881 326.259L454.212 321.65C454.367 321.112 454.73 320.659 455.22 320.388L460.478 317.486C462.118 316.581 461.853 314.148 460.057 313.617Z" stroke="white" stroke-width="1.58193"/>
</g>
<g filter="url(#filter4_dd_1_2)">
<rect x="126" y="213.999" width="47" height="28" rx="8" fill="url(#paint8_linear_1_2)"/>
<path d="M137.612 232.095C135.728 232.095 134.528 230.967 134.42 229.251H135.428C135.536 230.415 136.304 231.171 137.612 231.171C138.776 231.171 139.616 230.727 139.616 229.707C139.616 227.547 134.708 228.735 134.708 225.735C134.708 224.403 135.872 223.503 137.552 223.503C139.232 223.503 140.396 224.475 140.516 225.987H139.508C139.412 225.039 138.68 224.427 137.552 224.427C136.412 224.427 135.74 224.931 135.74 225.735C135.74 227.883 140.684 226.551 140.684 229.707C140.684 231.231 139.364 232.095 137.612 232.095ZM146.357 230.055H147.329C147.125 231.291 146.057 232.095 144.557 232.095C142.769 232.095 141.569 230.667 141.569 228.939C141.569 227.163 142.673 225.855 144.449 225.855C146.213 225.855 147.269 227.079 147.269 228.687C147.269 228.819 147.257 229.023 147.245 229.107H142.517C142.589 230.355 143.417 231.243 144.557 231.243C145.541 231.243 146.165 230.811 146.357 230.055ZM144.449 226.671C143.429 226.671 142.745 227.271 142.565 228.339H146.285C146.213 227.319 145.529 226.671 144.449 226.671ZM148.61 231.999V223.467H149.57V231.999H148.61ZM151.246 231.999V223.467H152.206V231.999H151.246ZM158.275 230.055H159.247C159.043 231.291 157.975 232.095 156.475 232.095C154.687 232.095 153.487 230.667 153.487 228.939C153.487 227.163 154.591 225.855 156.367 225.855C158.131 225.855 159.187 227.079 159.187 228.687C159.187 228.819 159.175 229.023 159.163 229.107H154.435C154.507 230.355 155.335 231.243 156.475 231.243C157.459 231.243 158.083 230.811 158.275 230.055ZM156.367 226.671C155.347 226.671 154.663 227.271 154.483 228.339H158.203C158.131 227.319 157.447 226.671 156.367 226.671ZM163.852 226.803H163.012C161.788 226.803 161.44 227.907 161.44 229.335V231.999H160.48V225.951H161.44V227.175C161.692 226.347 162.196 225.951 163.084 225.951H163.852V226.803Z" fill="white"/>
</g>
<g filter="url(#filter5_d_1_2)">
<path d="M171.054 205.617L186.588 201.024C188.336 200.507 189.872 202.302 189.092 203.95L182.163 218.577C181.331 220.332 178.769 220.125 178.23 218.259L176.899 213.65C176.744 213.113 176.382 212.659 175.892 212.389L170.633 209.486C168.993 208.582 169.258 206.148 171.054 205.617Z" fill="url(#paint9_linear_1_2)"/>
<path d="M171.054 205.617L186.588 201.024C188.336 200.507 189.872 202.302 189.092 203.95L182.163 218.577C181.331 220.332 178.769 220.125 178.23 218.259L176.899 213.65C176.744 213.113 176.382 212.659 175.892 212.389L170.633 209.486C168.993 208.582 169.258 206.148 171.054 205.617Z" stroke="white" stroke-width="1.58193"/>
</g>
<defs>
<filter id="filter0_f_1_2" x="-330" y="-259" width="1651" height="1250" filterUnits="userSpaceOnUse" color-interpolation-filters="sRGB">
<feFlood flood-opacity="0" result="BackgroundImageFix"/>
<feBlend mode="normal" in="SourceGraphic" in2="BackgroundImageFix" result="shape"/>
<feGaussianBlur stdDeviation="250" result="effect1_foregroundBlur_1_2"/>
</filter>
<filter id="filter1_di_1_2" x="209" y="210" width="223" height="108" filterUnits="userSpaceOnUse" color-interpolation-filters="sRGB">
<feFlood flood-opacity="0" result="BackgroundImageFix"/>
<feColorMatrix in="SourceAlpha" type="matrix" values="0 0 0 0 0 0 0 0 0 0 0 0 0 0 0 0 0 0 127 0" result="hardAlpha"/>
<feOffset dy="4"/>
<feGaussianBlur stdDeviation="12"/>
<feComposite in2="hardAlpha" operator="out"/>
<feColorMatrix type="matrix" values="0 0 0 0 0.0827989 0 0 0 0 0.366658 0 0 0 0 0.883188 0 0 0 1 0"/>
<feBlend mode="normal" in2="BackgroundImageFix" result="effect1_dropShadow_1_2"/>
<feBlend mode="normal" in="SourceGraphic" in2="effect1_dropShadow_1_2" result="shape"/>
<feColorMatrix in="SourceAlpha" type="matrix" values="0 0 0 0 0 0 0 0 0 0 0 0 0 0 0 0 0 0 127 0" result="hardAlpha"/>
<feOffset dy="2"/>
<feGaussianBlur stdDeviation="0.5"/>
<feComposite in2="hardAlpha" operator="arithmetic" k2="-1" k3="1"/>
<feColorMatrix type="matrix" values="0 0 0 0 1 0 0 0 0 1 0 0 0 0 1 0 0 0 0.24 0"/>
<feBlend mode="normal" in2="shape" result="effect2_innerShadow_1_2"/>
</filter>
<filter id="filter2_dd_1_2" x="444.299" y="319.716" width="97.403" height="55.403" filterUnits="userSpaceOnUse" color-interpolation-filters="sRGB">
<feFlood flood-opacity="0" result="BackgroundImageFix"/>
<feColorMatrix in="SourceAlpha" type="matrix" values="0 0 0 0 0 0 0 0 0 0 0 0 0 0 0 0 0 0 127 0" result="hardAlpha"/>
<feMorphology radius="4.56716" operator="erode" in="SourceAlpha" result="effect1_dropShadow_1_2"/>
<feOffset dy="11.4179"/>
<feGaussianBlur stdDeviation="9.13432"/>
<feColorMatrix type="matrix" values="0 0 0 0 0.0627451 0 0 0 0 0.0941176 0 0 0 0 0.156863 0 0 0 0.04 0"/>
<feBlend mode="normal" in2="BackgroundImageFix" result="effect1_dropShadow_1_2"/>
<feColorMatrix in="SourceAlpha" type="matrix" values="0 0 0 0 0 0 0 0 0 0 0 0 0 0 0 0 0 0 127 0" result="hardAlpha"/>
<feMorphology radius="4.56716" operator="erode" in="SourceAlpha" result="effect2_dropShadow_1_2"/>
<feOffset dy="9.13432"/>
<feGaussianBlur stdDeviation="4.56716"/>
<feColorMatrix type="matrix" values="0 0 0 0 0.0627451 0 0 0 0 0.0941176 0 0 0 0 0.156863 0 0 0 0.04 0"/>
<feBlend mode="normal" in2="effect1_dropShadow_1_2" result="effect2_dropShadow_1_2"/>
<feBlend mode="normal" in="SourceGraphic" in2="effect2_dropShadow_1_2" result="shape"/>
</filter>
<filter id="filter3_d_1_2" x="435.233" y="304.284" width="32.9128" height="32.0038" filterUnits="userSpaceOnUse" color-interpolation-filters="sRGB">
<feFlood flood-opacity="0" result="BackgroundImageFix"/>
<feColorMatrix in="SourceAlpha" type="matrix" values="0 0 0 0 0 0 0 0 0 0 0 0 0 0 0 0 0 0 127 0" result="hardAlpha"/>
<feOffset dy="1.92845"/>
<feGaussianBlur stdDeviation="2.89267"/>
<feColorMatrix type="matrix" values="0 0 0 0 0 0 0 0 0 0 0 0 0 0 0 0 0 0 0.2 0"/>
<feBlend mode="normal" in2="BackgroundImageFix" result="effect1_dropShadow_1_2"/>
<feBlend mode="normal" in="SourceGraphic" in2="effect1_dropShadow_1_2" result="shape"/>
</filter>
<filter id="filter4_dd_1_2" x="112.299" y="211.715" width="74.403" height="55.403" filterUnits="userSpaceOnUse" color-interpolation-filters="sRGB">
<feFlood flood-opacity="0" result="BackgroundImageFix"/>
<feColorMatrix in="SourceAlpha" type="matrix" values="0 0 0 0 0 0 0 0 0 0 0 0 0 0 0 0 0 0 127 0" result="hardAlpha"/>
<feMorphology radius="4.56716" operator="erode" in="SourceAlpha" result="effect1_dropShadow_1_2"/>
<feOffset dy="11.4179"/>
<feGaussianBlur stdDeviation="9.13432"/>
<feColorMatrix type="matrix" values="0 0 0 0 0.0627451 0 0 0 0 0.0941176 0 0 0 0 0.156863 0 0 0 0.04 0"/>
<feBlend mode="normal" in2="BackgroundImageFix" result="effect1_dropShadow_1_2"/>
<feColorMatrix in="SourceAlpha" type="matrix" values="0 0 0 0 0 0 0 0 0 0 0 0 0 0 0 0 0 0 127 0" result="hardAlpha"/>
<feMorphology radius="4.56716" operator="erode" in="SourceAlpha" result="effect2_dropShadow_1_2"/>
<feOffset dy="9.13432"/>
<feGaussianBlur stdDeviation="4.56716"/>
<feColorMatrix type="matrix" values="0 0 0 0 0.0627451 0 0 0 0 0.0941176 0 0 0 0 0.156863 0 0 0 0.04 0"/>
<feBlend mode="normal" in2="effect1_dropShadow_1_2" result="effect2_dropShadow_1_2"/>
<feBlend mode="normal" in="SourceGraphic" in2="effect2_dropShadow_1_2" result="shape"/>
</filter>
<filter id="filter5_d_1_2" x="162.966" y="196.284" width="32.9128" height="32.0038" filterUnits="userSpaceOnUse" color-interpolation-filters="sRGB">
<feFlood flood-opacity="0" result="BackgroundImageFix"/>
<feColorMatrix in="SourceAlpha" type="matrix" values="0 0 0 0 0 0 0 0 0 0 0 0 0 0 0 0 0 0 127 0" result="hardAlpha"/>
<feOffset dy="1.92845"/>
<feGaussianBlur stdDeviation="2.89267"/>
<feColorMatrix type="matrix" values="0 0 0 0 0 0 0 0 0 0 0 0 0 0 0 0 0 0 0.2 0"/>
<feBlend mode="normal" in2="BackgroundImageFix" result="effect1_dropShadow_1_2"/>
<feBlend mode="normal" in="SourceGraphic" in2="effect1_dropShadow_1_2" result="shape"/>
</filter>
<linearGradient id="paint0_linear_1_2" x1="48" y1="260" x2="592" y2="260" gradientUnits="userSpaceOnUse">
<stop stop-color="white" stop-opacity="0.1"/>
<stop offset="0.5" stop-color="white"/>
<stop offset="1" stop-color="white" stop-opacity="0.1"/>
</linearGradient>
<linearGradient id="paint1_linear_1_2" x1="320.994" y1="203" x2="320.489" y2="290" gradientUnits="userSpaceOnUse">
<stop stop-color="#93D2FF"/>
<stop offset="1" stop-color="#0542FC"/>
</linearGradient>
<linearGradient id="paint2_linear_1_2" x1="320.5" y1="230" x2="320.5" y2="290" gradientUnits="userSpaceOnUse">
<stop stop-color="#0542FC"/>
<stop offset="1" stop-color="#3567FD"/>
</linearGradient>
<linearGradient id="paint3_linear_1_2" x1="323.945" y1="261.66" x2="269.815" y2="315.708" gradientUnits="userSpaceOnUse">
<stop stop-color="#C2D1FF" stop-opacity="0.12"/>
<stop offset="1" stop-color="#C2D1FF" stop-opacity="0.24"/>
</linearGradient>
<linearGradient id="paint4_linear_1_2" x1="324.499" y1="262.293" x2="407.045" y2="205.522" gradientUnits="userSpaceOnUse">
<stop stop-color="#C2D1FF" stop-opacity="0.12"/>
<stop offset="1" stop-color="#C2D1FF" stop-opacity="0.4"/>
</linearGradient>
<linearGradient id="paint5_linear_1_2" x1="325.192" y1="263.084" x2="430.081" y2="200.154" gradientUnits="userSpaceOnUse">
<stop stop-color="#C2D1FF" stop-opacity="0.12"/>
<stop offset="1" stop-color="#C2D1FF" stop-opacity="0.4"/>
</linearGradient>
<linearGradient id="paint6_linear_1_2" x1="528.64" y1="293.041" x2="499.415" y2="361.606" gradientUnits="userSpaceOnUse">
<stop stop-color="#93D2FF"/>
<stop offset="1" stop-color="#0542FC"/>
</linearGradient>
<linearGradient id="paint7_linear_1_2" x1="454.728" y1="275.923" x2="426.745" y2="313.733" gradientUnits="userSpaceOnUse">
<stop stop-color="#93D2FF"/>
<stop offset="1" stop-color="#0542FC"/>
</linearGradient>
<linearGradient id="paint8_linear_1_2" x1="173.43" y1="185.04" x2="136.769" y2="242.789" gradientUnits="userSpaceOnUse">
<stop stop-color="#93D2FF"/>
<stop offset="1" stop-color="#0542FC"/>
</linearGradient>
<linearGradient id="paint9_linear_1_2" x1="176.383" y1="167.923" x2="204.366" y2="205.733" gradientUnits="userSpaceOnUse">
<stop stop-color="#93D2FF"/>
<stop offset="1" stop-color="#0542FC"/>
</linearGradient>
</defs>
</svg>
