<svg width="334" height="258" viewBox="0 0 334 258" fill="none" xmlns="http://www.w3.org/2000/svg">
<circle cx="82.671" cy="82.671" r="82.171" transform="matrix(0.866025 -0.5 0.866025 0.5 24 156.797)" stroke="url(#paint0_linear_1_2)"/>
<path fill-rule="evenodd" clip-rule="evenodd" d="M227 95.641C242.906 104.824 251.177 116.746 251.813 128.778V149.562C251.177 137.531 242.906 125.609 227 116.426V95.641Z" fill="#242F53"/>
<path fill-rule="evenodd" clip-rule="evenodd" d="M251.813 128.778C252.502 141.812 244.231 154.975 227 164.923V185.708C244.231 175.759 252.502 162.596 251.813 149.562V128.778Z" fill="#2B365A"/>
<path fill-rule="evenodd" clip-rule="evenodd" d="M227 164.923C193.863 184.055 140.137 184.055 107 164.923V185.708C140.137 204.839 193.863 204.839 227 185.708V164.923Z" fill="#2B365A"/>
<path d="M82.334 137.21H83.0268V144.138H82.334V137.21Z" fill="#2B365A"/>
<path fill-rule="evenodd" clip-rule="evenodd" d="M82.1862 131.786C81.497 118.752 89.768 105.59 106.999 95.6411V116.426C89.768 126.374 81.497 139.537 82.1862 152.571V131.786Z" fill="#242F53"/>
<path fill-rule="evenodd" clip-rule="evenodd" d="M107 95.6411C140.137 76.5095 193.863 76.5094 227 95.6411V116.426C193.863 97.294 140.137 97.2941 107 116.426V95.6411Z" fill="#242F53"/>
<path fill-rule="evenodd" clip-rule="evenodd" d="M107.001 164.923C91.0948 155.74 82.8237 143.818 82.1875 131.786V152.571C82.8237 164.603 91.0948 176.525 107.001 185.708V164.923Z" fill="#2B365A"/>
<circle cx="69.282" cy="69.282" r="68.782" transform="matrix(0.866025 -0.5 0.866025 0.5 47 130.282)" fill="#384367" stroke="url(#paint1_linear_1_2)"/>
<g filter="url(#filter0_f_1_2)">
<path d="M250 147.501C266.5 82.501 161.5 70.0012 117 92.0006L155.5 88.0012C203.5 82.0013 236 106.001 247 122.001L250 147.501Z" fill="#C2D1FF" fill-opacity="0.24"/>
</g>
<g filter="url(#filter1_f_1_2)">
<ellipse cx="167" cy="125" rx="67" ry="33" fill="#4875FF"/>
</g>
<path d="M132.829 127.325L165.133 108.675C166.378 107.956 167.452 107.336 168.409 106.867C169.419 106.372 170.516 105.933 171.865 105.68C173.878 105.302 176.045 105.302 178.058 105.68C179.407 105.933 180.504 106.372 181.514 106.867C182.471 107.336 183.545 107.956 184.79 108.675L191.495 112.545C192.799 113.299 192.799 114.52 191.495 115.273C190.19 116.026 188.075 116.026 186.771 115.273L180.158 111.455C178.796 110.668 177.915 110.162 177.191 109.807C176.497 109.467 176.17 109.381 175.994 109.348C175.323 109.222 174.6 109.222 173.929 109.348C173.753 109.381 173.426 109.467 172.732 109.807C172.008 110.162 171.127 110.668 169.765 111.455L137.644 130C136.282 130.786 135.405 131.295 134.79 131.713C134.201 132.114 134.052 132.302 133.995 132.404C133.777 132.791 133.777 133.209 133.995 133.596C134.052 133.698 134.201 133.886 134.79 134.287C135.405 134.705 136.282 135.214 137.644 136L146.147 140.909C147.508 141.695 148.389 142.202 149.113 142.557C149.807 142.897 150.134 142.983 150.31 143.016C150.981 143.142 151.704 143.142 152.375 143.016C152.551 142.983 152.878 142.897 153.572 142.557C154.296 142.202 155.177 141.695 156.539 140.909L170.238 133C171.542 132.247 173.657 132.247 174.962 133C176.266 133.753 176.266 134.974 174.962 135.727L161.172 143.689C159.927 144.408 158.852 145.028 157.895 145.497C156.885 145.992 155.788 146.431 154.439 146.684C152.427 147.062 150.259 147.062 148.246 146.684C146.897 146.431 145.8 145.992 144.79 145.497C143.833 145.028 142.759 144.408 141.514 143.689L132.829 138.675C131.584 137.956 130.51 137.336 129.697 136.783C128.84 136.2 128.079 135.567 127.641 134.788C126.987 133.626 126.987 132.374 127.641 131.212C128.079 130.433 128.84 129.8 129.697 129.217C130.51 128.664 131.584 128.044 132.829 127.325Z" fill="white"/>
<path d="M148.39 134.705C146.76 133.763 146.76 132.237 148.39 131.295C150.021 130.354 152.664 130.354 154.295 131.295C155.926 132.237 155.926 133.763 154.295 134.705C152.664 135.646 150.021 135.646 148.39 134.705Z" fill="white"/>
<path d="M160.2 124.477C158.569 125.419 158.569 126.945 160.2 127.886C161.83 128.828 164.474 128.828 166.104 127.886C167.735 126.945 167.735 125.419 166.104 124.477C164.474 123.536 161.83 123.536 160.2 124.477Z" fill="white"/>
<path d="M172.009 117.659C170.379 118.6 170.379 120.127 172.009 121.068C173.64 122.01 176.283 122.01 177.914 121.068C179.544 120.127 179.544 118.6 177.914 117.659C176.283 116.718 173.64 116.718 172.009 117.659Z" fill="white"/>
<path fill-rule="evenodd" clip-rule="evenodd" d="M182.047 129.591C178.46 127.52 178.46 124.162 182.047 122.091C185.634 120.02 191.45 120.02 195.038 122.091L196.875 123.152C197.41 122.908 198.064 122.666 198.878 122.514C200.22 122.262 201.665 122.262 203.007 122.514C203.974 122.695 204.716 123.003 205.3 123.289C205.831 123.55 206.412 123.885 207.008 124.229L209.048 125.407C209.644 125.751 210.225 126.086 210.676 126.393C211.172 126.731 211.705 127.159 212.02 127.717C212.455 128.492 212.455 129.326 212.02 130.101C211.705 130.66 211.172 131.088 210.676 131.425C210.225 131.732 209.644 132.067 209.048 132.411L199.922 137.68C199.326 138.024 198.746 138.359 198.214 138.62C197.63 138.906 196.889 139.214 195.921 139.395C194.579 139.647 193.134 139.647 191.792 139.395C190.825 139.214 190.083 138.906 189.499 138.62C188.968 138.359 188.387 138.024 187.791 137.68L185.751 136.502C185.155 136.158 184.574 135.823 184.123 135.516C183.627 135.178 183.094 134.751 182.779 134.192C182.343 133.417 182.343 132.583 182.779 131.808C183.044 131.338 183.463 130.961 183.885 130.652L182.047 129.591ZM190.314 124.818L192.085 125.841L188.542 127.886L186.771 126.864C185.793 126.299 185.793 125.383 186.771 124.818C187.749 124.253 189.335 124.253 190.314 124.818Z" fill="white"/>
<defs>
<filter id="filter0_f_1_2" x="109" y="74" width="150.742" height="81.5005" filterUnits="userSpaceOnUse" color-interpolation-filters="sRGB">
<feFlood flood-opacity="0" result="BackgroundImageFix"/>
<feBlend mode="normal" in="SourceGraphic" in2="BackgroundImageFix" result="shape"/>
<feGaussianBlur stdDeviation="4" result="effect1_foregroundBlur_1_2"/>
</filter>
<filter id="filter1_f_1_2" x="0" y="-8" width="334" height="266" filterUnits="userSpaceOnUse" color-interpolation-filters="sRGB">
<feFlood flood-opacity="0" result="BackgroundImageFix"/>
<feBlend mode="normal" in="SourceGraphic" in2="BackgroundImageFix" result="shape"/>
<feGaussianBlur stdDeviation="50" result="effect1_foregroundBlur_1_2"/>
</filter>
<linearGradient id="paint0_linear_1_2" x1="85.5336" y1="85.9394" x2="9.26853" y2="118.083" gradientUnits="userSpaceOnUse">
<stop stop-color="#C2D1FF" stop-opacity="0.12"/>
<stop offset="1" stop-color="#C2D1FF" stop-opacity="0.4"/>
</linearGradient>
<linearGradient id="paint1_linear_1_2" x1="133.802" y1="23.2377" x2="92.2945" y2="41.3921" gradientUnits="userSpaceOnUse">
<stop stop-color="#C2D1FF"/>
<stop offset="1" stop-color="#C2D1FF" stop-opacity="0"/>
</linearGradient>
</defs>
</svg>
